<svg width="514" height="145" viewBox="0 0 514 145" fill="none" xmlns="http://www.w3.org/2000/svg">
<path d="M96.8 118.2L44.4 118.2L36 143H0.2L51 2.6H90.6L141.4 143H105.2L96.8 118.2ZM88 91.8L70.6 40.4L53.4 91.8L88 91.8ZM241.861 71C249.994 72.7333 256.528 76.8 261.461 83.2C266.394 89.4667 268.861 96.6667 268.861 104.8C268.861 116.533 264.728 125.867 256.461 132.8C248.328 139.6 236.928 143 222.261 143H156.861L156.861 2.6L220.061 2.6C234.328 2.6 245.461 5.86666 253.461 12.4C261.594 18.9333 265.661 27.8 265.661 39C265.661 47.2667 263.461 54.1333 259.061 59.6C254.794 65.0667 249.061 68.8667 241.861 71ZM191.061 59.4H213.461C219.061 59.4 223.328 58.2 226.261 55.8C229.328 53.2667 230.861 49.6 230.861 44.8C230.861 40 229.328 36.3333 226.261 33.8C223.328 31.2667 219.061 30 213.461 30H191.061V59.4ZM216.261 115.4C221.994 115.4 226.394 114.133 229.461 111.6C232.661 108.933 234.261 105.133 234.261 100.2C234.261 95.2667 232.594 91.4 229.261 88.6C226.061 85.8 221.594 84.4 215.861 84.4H191.061V115.4H216.261ZM355.097 144.4C341.897 144.4 329.764 141.333 318.697 135.2C307.764 129.067 299.03 120.533 292.497 109.6C286.097 98.5333 282.897 86.1333 282.897 72.4C282.897 58.6667 286.097 46.3333 292.497 35.4C299.03 24.4667 307.764 15.9333 318.697 9.8C329.764 3.66666 341.897 0.599998 355.097 0.599998C368.297 0.599998 380.364 3.66666 391.297 9.8C402.364 15.9333 411.03 24.4667 417.297 35.4C423.697 46.3333 426.897 58.6667 426.897 72.4C426.897 86.1333 423.697 98.5333 417.297 109.6C410.897 120.533 402.23 129.067 391.297 135.2C380.364 141.333 368.297 144.4 355.097 144.4ZM355.097 113.2C366.297 113.2 375.23 109.467 381.897 102C388.697 94.5333 392.097 84.6667 392.097 72.4C392.097 60 388.697 50.1333 381.897 42.8C375.23 35.3333 366.297 31.6 355.097 31.6C343.764 31.6 334.697 35.2667 327.897 42.6C321.23 49.9333 317.897 59.8667 317.897 72.4C317.897 84.8 321.23 94.7333 327.897 102.2C334.697 109.533 343.764 113.2 355.097 113.2ZM479.523 2.6V86.6C479.523 95 481.59 101.467 485.723 106C489.857 110.533 495.923 112.8 503.923 112.8C511.923 112.8 518.057 110.533 522.323 106C526.59 101.467 528.723 95 528.723 86.6V2.6H562.923V86.4C562.923 98.9333 560.257 109.533 554.923 118.2C549.59 126.867 542.39 133.4 533.323 137.8C524.39 142.2 514.39 144.4 503.323 144.4C492.257 144.4 482.323 142.267 473.523 138C464.857 133.6 457.99 127.067 452.923 118.4C447.857 109.6 445.323 98.9333 445.323 86.4V2.6H479.523ZM687.939 2.6V30L650.739 30V143H616.539V30H579.339V2.6L687.939 2.6ZM906.486 2.6V143H872.286V58.8L840.886 143H813.286L781.686 58.6V143H747.486V2.6L787.886 2.6L827.286 99.8L866.286 2.6H906.486ZM965.28 30V58.4L1011.08 58.4V84.8L965.28 84.8V115.6L1017.08 115.6V143L931.08 143V2.6L1017.08 2.6V30L965.28 30Z" fill="#272727"/>
</svg>
