<svg width="31" height="19" viewBox="0 0 31 19" fill="none" xmlns="http://www.w3.org/2000/svg">
<path d="M23.7673 18.6409C22.821 18.6526 21.881 18.4859 20.9965 18.1494C20.204 17.8412 19.488 17.3645 18.8979 16.7523C18.3166 16.1267 17.8677 15.3901 17.5781 14.5867C17.2601 13.6979 17.1025 12.7597 17.1129 11.8159C17.1061 10.8882 17.2682 9.96711 17.5912 9.09752C17.8924 8.28664 18.3559 7.54576 18.9533 6.92023C19.5525 6.30248 20.2682 5.80977 21.0592 5.47064C21.9159 5.10823 22.8386 4.92795 23.7687 4.94127C24.7684 4.91991 25.7584 5.14003 26.6548 5.58294C27.4549 5.99334 28.1488 6.58392 28.6819 7.30815C29.2196 8.04788 29.6075 8.88561 29.8237 9.77419C30.0598 10.7188 30.1439 11.695 30.0731 12.6661H20.6946C20.6573 13.5884 20.9734 14.4903 21.5783 15.1875C22.2138 15.745 23.0448 16.0272 23.8883 15.9721C24.5508 15.9876 25.2019 15.7976 25.7521 15.4281C26.1889 15.1615 26.5241 14.7565 26.7044 14.2775H29.8471C29.4909 15.6319 28.6715 16.8187 27.5312 17.6317C26.4026 18.3297 25.0937 18.6807 23.7673 18.6409ZM23.6667 7.63919C23.1766 7.62078 22.6894 7.72083 22.2462 7.93085C21.8997 8.1056 21.5922 8.34867 21.3421 8.64544C21.1221 8.91504 20.9593 9.22666 20.8637 9.56127C20.7795 9.84006 20.7253 10.127 20.7019 10.4173H26.509C26.4671 9.66108 26.1787 8.93936 25.6879 8.36252C25.1447 7.84973 24.4119 7.58746 23.6667 7.63919ZM9.62291 18.3025H0.916664V0.357727H9.375C10.1586 0.350867 10.9407 0.426633 11.7083 0.583769C12.3586 0.710709 12.9781 0.962278 13.5327 1.3246C14.0336 1.67232 14.4356 2.14418 14.6994 2.69398C14.9905 3.35626 15.13 4.07524 15.1077 4.79835C15.1393 5.5984 14.9272 6.38918 14.4996 7.06606C14.0316 7.71223 13.3991 8.22132 12.6679 8.54044C13.6615 8.78875 14.5348 9.38147 15.1325 10.2131C15.6877 11.0689 15.9685 12.0737 15.9375 13.0934C15.9586 13.9088 15.7794 14.717 15.4154 15.4471C15.0795 16.0946 14.5923 16.6515 13.995 17.0702C13.3758 17.5011 12.6843 17.8172 11.9533 18.0036C11.1903 18.204 10.4045 18.3049 9.61562 18.304L9.62291 18.3025ZM4.86875 10.3065V15.2502H9.08333C9.45581 15.2542 9.82756 15.2166 10.1917 15.1379C10.525 15.0736 10.8422 14.9437 11.125 14.7559C11.3973 14.5768 11.6184 14.33 11.7667 14.0398C11.9386 13.6758 12.0197 13.2754 12.0029 12.8731C12.0736 12.1266 11.7844 11.3911 11.2242 10.8927C10.6197 10.4766 9.89491 10.2716 9.16208 10.3094L4.86875 10.3065ZM4.86875 3.41585V7.60856H8.8675C9.48606 7.63292 10.0959 7.45641 10.6058 7.10544C11.0865 6.70623 11.3397 6.09579 11.2825 5.47356C11.2948 5.11639 11.2187 4.7617 11.0608 4.44106C10.9183 4.18186 10.7081 3.96615 10.4527 3.81689C10.1838 3.65741 9.88673 3.55097 9.57771 3.50335C9.24117 3.44026 8.89924 3.41046 8.55687 3.41439L4.86875 3.41585ZM27.241 3.33419H19.964V1.56231H27.241V3.33273V3.33419Z" fill="white"/>
</svg>
