<svg width="31" height="31" viewBox="0 0 31 31" fill="none" xmlns="http://www.w3.org/2000/svg">
<path d="M15.5 30.0833C7.44585 30.0833 0.916668 23.5541 0.916668 15.5C0.916668 7.44584 7.44585 0.916656 15.5 0.916656C23.5542 0.916656 30.0833 7.44584 30.0833 15.5C30.0745 23.5505 23.5505 30.0745 15.5 30.0833ZM15.5 3.83332C9.05668 3.83332 3.83333 9.05667 3.83333 15.5C3.83333 21.9433 9.05668 27.1667 15.5 27.1667C21.9433 27.1667 27.1667 21.9433 27.1667 15.5C27.1594 9.05967 21.9403 3.84056 15.5 3.83332ZM15.5 22.7917L8.20834 15.5L10.2646 13.4437L14.0417 17.2062V8.20832H16.9583V17.2062L20.7354 13.4437L22.7917 15.5L15.5 22.7917Z" fill="#202020"/>
</svg>
