<svg width="35" height="25" viewBox="0 0 35 25" fill="none" xmlns="http://www.w3.org/2000/svg">
<path d="M27.7083 24.1667H8.74999C4.19178 24.1694 0.395041 20.6723 0.0238517 16.1292C-0.347338 11.5861 2.83138 7.51911 7.32957 6.78187C9.39998 3.11108 13.2856 0.838447 17.5 0.833243C20.1279 0.82331 22.6806 1.71022 24.7362 3.34749C26.7547 4.94854 28.1897 7.16975 28.8196 9.66791C32.5878 10.2469 35.2739 13.631 34.9825 17.4322C34.6912 21.2335 31.5207 24.1687 27.7083 24.1667ZM17.5 3.74998C14.3379 3.75372 11.4226 5.4593 9.86999 8.21395L9.18749 9.43749L7.80353 9.66354C4.81436 10.1643 2.70667 12.8708 2.95342 15.8916C3.20018 18.9124 5.71917 21.241 8.74999 21.25H27.7083C29.9958 21.2524 31.899 19.4921 32.0749 17.2114C32.2508 14.9306 30.64 12.8994 28.3792 12.551L26.46 12.2594L25.9904 10.3752C25.021 6.4768 21.5171 3.74264 17.5 3.74998ZM17.5 18.3333L11.6667 12.5H15.3854V8.12499H19.6146V12.5H23.3333L17.5 18.3333Z" fill="white"/>
</svg>
