<svg width="31" height="31" viewBox="0 0 31 31" fill="none" xmlns="http://www.w3.org/2000/svg">
<path d="M15.5 30.0834C7.44585 30.0834 0.916666 23.5542 0.916666 15.5C0.916666 7.44587 7.44585 0.916687 15.5 0.916687C23.5542 0.916687 30.0833 7.44587 30.0833 15.5C30.0745 23.5505 23.5505 30.0745 15.5 30.0834ZM8.38333 25.0448L8.37604 25.0594C11.7055 27.5536 16.0969 28.125 19.9538 26.5659C19.4009 23.5927 18.5814 20.6755 17.5052 17.8494C15.0332 18.7113 12.7732 20.0899 10.8756 21.8934C9.94043 22.7788 9.13084 23.7881 8.46938 24.8931L8.45917 24.9092V24.8946L8.43292 24.9456L8.41542 24.9748L8.40521 24.9938L8.38042 25.0463L8.38333 25.0448ZM22.4694 17.024C21.7514 17.025 21.0342 17.0737 20.3227 17.1698C21.2519 19.7664 21.9832 22.4296 22.5102 25.1367C24.9885 23.3502 26.673 20.6681 27.206 17.6598C25.6632 17.2341 24.0699 17.0188 22.4694 17.0196V17.024ZM3.56646 15.4344V15.5161C3.56912 18.3257 4.56326 21.0442 6.37375 23.1927C8.71916 19.5695 12.1885 16.8158 16.2496 15.3542L16.4231 15.3046C16.165 14.7344 15.9229 14.2254 15.6808 13.75C11.7899 14.841 7.77069 15.4075 3.72979 15.4344H3.56646ZM22.0129 14.5506C23.8225 14.5573 25.628 14.7222 27.4088 15.0436C27.316 12.5767 26.4531 10.2007 24.9413 8.24919C23.177 10.2222 20.9811 11.7613 18.5246 12.7467L18.5669 12.7292L18.5217 12.7481C18.7827 13.2921 19.0117 13.8011 19.2027 14.2546C19.2479 14.3625 19.2858 14.4559 19.3208 14.5463L19.3806 14.6921C20.2547 14.5951 21.1335 14.5479 22.0129 14.5506ZM10.2165 4.82065C7.04504 6.38598 4.73194 9.27816 3.90187 12.7161C7.30034 12.6636 10.6825 12.2341 13.9863 11.4356H14.0052H14.0271L14.0417 11.4167L14.1204 11.3977H14.1292L14.1875 11.3861H14.2006H14.2108L14.2415 11.3773L14.2998 11.3627L14.3333 11.3481L14.3654 11.3394H14.38H14.3946C12.4506 7.91669 10.4381 5.1269 10.215 4.82065H10.2165ZM15.5 3.59852C14.7017 3.59655 13.9051 3.67225 13.1215 3.8246C14.6492 5.9415 16.0512 8.14642 17.32 10.4279C19.5923 9.61864 21.6188 8.23981 23.2058 6.42335C21.0514 4.60131 18.3216 3.60062 15.5 3.59852Z" fill="white"/>
</svg>
