<svg width="31" height="30" viewBox="0 0 31 30" fill="none" xmlns="http://www.w3.org/2000/svg">
<path d="M15.5379 0.916687C8.40219 0.915771 2.31932 6.09083 1.17684 13.1345C0.0343538 20.1782 4.16962 27.0106 10.9398 29.2652C11.669 29.3965 11.93 28.9488 11.93 28.5638C11.93 28.2181 11.9183 27.3023 11.914 26.0846C7.86709 26.9596 7.0125 24.1334 7.0125 24.1334C6.74609 23.2539 6.17335 22.499 5.39813 22.0056C4.08563 21.1029 5.49875 21.1234 5.49875 21.1234C6.43307 21.2515 7.25539 21.8051 7.72563 22.6225C8.12366 23.3462 8.79423 23.881 9.58836 24.108C10.3825 24.335 11.2344 24.2355 11.9548 23.8315C12.0225 23.0936 12.3508 22.4039 12.8808 21.8861C9.65209 21.52 6.25709 20.2717 6.25709 14.6965C6.23917 13.2545 6.77465 11.8605 7.75334 10.8013C7.31051 9.5461 7.36266 8.16935 7.89917 6.95127C7.89917 6.95127 9.11979 6.55898 11.8979 8.44023C14.2806 7.78691 16.7952 7.78691 19.1779 8.44023C21.9575 6.55752 23.1767 6.95127 23.1767 6.95127C23.7157 8.16877 23.7679 9.54648 23.3225 10.8013C24.3048 11.8604 24.8398 13.258 24.8158 14.7023C24.8158 20.2921 21.4179 21.52 18.1775 21.8802C18.8765 22.5949 19.235 23.5753 19.1619 24.5723C19.1619 26.5177 19.1444 28.0869 19.1444 28.5638C19.1444 28.9531 19.404 29.4052 20.1463 29.2623C26.9136 27.0039 31.0444 20.171 29.8996 13.1292C28.7548 6.08743 22.6722 0.915055 15.5379 0.916687Z" fill="white"/>
</svg>
