<svg width="28" height="28" viewBox="0 0 28 28" fill="none" xmlns="http://www.w3.org/2000/svg">
<path d="M14.1023 27.2798C10.5148 27.2798 10.0918 27.2608 8.69185 27.1996C7.6001 27.1637 6.52248 26.9417 5.50539 26.5433C3.74564 25.8585 2.35414 24.4665 1.66997 22.7065C1.28688 21.6857 1.08025 20.6072 1.05893 19.5171C0.977264 18.12 0.977264 17.6621 0.977264 14.1023C0.977264 10.5046 0.996223 10.0846 1.05893 8.69188C1.08072 7.60326 1.28734 6.52626 1.66997 5.50688C2.35339 3.74453 3.74715 2.3513 5.50976 1.66854C6.52862 1.28384 7.60589 1.07667 8.69477 1.05604C10.0875 0.977295 10.5454 0.977295 14.1023 0.977295C17.7189 0.977295 18.1346 0.996253 19.5127 1.05604C20.6044 1.07685 21.6845 1.284 22.7064 1.66854C24.4685 2.35207 25.862 3.74503 26.5462 5.50688C26.9358 6.54112 27.1435 7.63495 27.1602 8.74C27.2418 10.1371 27.2418 10.5935 27.2418 14.1519C27.2418 17.7102 27.2214 18.1769 27.1602 19.5579C27.1385 20.649 26.9314 21.7285 26.5477 22.7502C25.8618 24.5114 24.4682 25.904 22.7064 26.5885C21.686 26.9709 20.608 27.1775 19.5185 27.1996C18.1258 27.2798 17.6693 27.2798 14.1023 27.2798ZM14.0527 3.28584C10.4856 3.28584 10.1152 3.30334 8.72247 3.36605C7.8912 3.37706 7.06796 3.53046 6.28851 3.81959C5.13753 4.26002 4.22676 5.16707 3.78164 6.31625C3.49028 7.10419 3.33686 7.93643 3.3281 8.77646C3.25081 10.1896 3.25081 10.56 3.25081 14.1023C3.25081 17.6023 3.26393 18.0267 3.3281 19.431C3.34115 20.2626 3.49449 21.086 3.78164 21.8665C4.22742 23.0149 5.13803 23.9213 6.28851 24.3617C7.06743 24.6527 7.89101 24.8062 8.72247 24.8152C10.1341 24.8969 10.506 24.8969 14.0527 24.8969C17.63 24.8969 18.0004 24.8794 19.3814 24.8152C20.2133 24.8051 21.0371 24.6517 21.8168 24.3617C22.9609 23.9174 23.8657 23.0131 24.3106 21.8694C24.6014 21.0808 24.7548 20.2482 24.7641 19.4077H24.7802C24.8429 18.0135 24.8429 17.6417 24.8429 14.079C24.8429 10.5163 24.8268 10.1415 24.7641 8.74875C24.7511 7.91816 24.5977 7.09575 24.3106 6.31625C23.8667 5.17084 22.9617 4.2648 21.8168 3.81959C21.0373 3.529 20.2133 3.37556 19.3814 3.36605C17.9712 3.28584 17.6023 3.28584 14.0527 3.28584ZM14.1023 20.8383C11.3752 20.8401 8.91558 19.1988 7.87061 16.6798C6.82563 14.1609 7.40109 11.2605 9.3286 9.3313C11.2561 7.40212 14.156 6.82415 16.6759 7.86695C19.1957 8.90974 20.8392 11.3679 20.8398 14.095C20.8358 17.8153 17.8226 20.8311 14.1023 20.8383ZM14.1023 9.71709C11.686 9.71709 9.72726 11.6758 9.72726 14.0921C9.72726 16.5083 11.686 18.4671 14.1023 18.4671C16.5185 18.4671 18.4773 16.5083 18.4773 14.0921C18.4717 11.6782 16.5162 9.7227 14.1023 9.71709ZM21.1023 8.6773C20.2352 8.67408 19.5344 7.9694 19.536 7.10231C19.5376 6.23521 20.241 5.53314 21.1081 5.53314C21.9752 5.53314 22.6786 6.2352 22.6802 7.10229C22.6806 7.52064 22.5144 7.92191 22.2183 8.21745C21.9222 8.51299 21.5206 8.67846 21.1023 8.6773Z" fill="white"/>
</svg>
