<svg width="27" height="27" viewBox="0 0 27 27" fill="none" xmlns="http://www.w3.org/2000/svg">
<path d="M14.9583 26.625H9.125V9.125H14.9583V12.0417C16.2018 10.4597 18.0874 9.51667 20.099 9.47062C23.7165 9.49071 26.6355 12.4345 26.625 16.0521V26.625H20.7917V16.7812C20.5584 15.1517 19.1609 13.9427 17.5148 13.9462C16.7948 13.969 16.1151 14.2843 15.6327 14.8192C15.1503 15.3542 14.9068 16.0627 14.9583 16.7812V26.625ZM6.20833 26.625H0.375V9.125H6.20833V26.625ZM3.29167 6.20833C1.68084 6.20833 0.375 4.9025 0.375 3.29167C0.375 1.68084 1.68084 0.375 3.29167 0.375C4.9025 0.375 6.20833 1.68084 6.20833 3.29167C6.20833 4.06521 5.90104 4.80708 5.35406 5.35406C4.80708 5.90104 4.06521 6.20833 3.29167 6.20833Z" fill="white"/>
</svg>
