<svg width="45" height="44" viewBox="0 0 45 44" fill="none" xmlns="http://www.w3.org/2000/svg">
<path d="M42.1984 1.15666C39.7192 0.611895 37.1865 0.335796 34.6459 0.33333C32.2465 0.18386 29.8406 0.501243 27.5667 1.26723C25.2928 2.03321 23.1956 3.23268 21.3959 4.79666C19.0256 7.12222 16.6774 9.44055 14.3513 11.7517C11.6792 11.47 5.34127 11.3183 1.10127 15.5217C0.68997 15.9276 0.459106 16.4768 0.459106 17.0492C0.459106 17.6216 0.68997 18.1707 1.10127 18.5767L26.0554 43.1033C26.4692 43.5069 27.0289 43.7334 27.6123 43.7334C28.1957 43.7334 28.7554 43.5069 29.1692 43.1033C33.4754 38.77 33.3429 32.66 33.0779 30.1033L40.1667 23.17C47.2113 16.2583 44.0092 3.28 43.8767 2.73833C43.7747 2.34754 43.5636 1.99243 43.2671 1.71299C42.9706 1.43355 42.6004 1.24088 42.1984 1.15666V1.15666ZM36.9867 20.115L29.125 27.785C28.8704 28.0372 28.6829 28.347 28.5789 28.687C28.475 29.027 28.4577 29.3869 28.5288 29.735C29.0058 32.6336 28.5906 35.6059 27.3363 38.2717L5.98169 17.2767C8.74178 16.0303 11.8272 15.6519 14.815 16.1933C15.1685 16.2385 15.5279 16.199 15.8625 16.0783C16.197 15.9575 16.4969 15.7591 16.7363 15.5C16.7363 15.5 19.8279 12.3583 24.4875 7.78666C27.3527 5.52925 30.9802 4.4151 34.6459 4.66666C36.3701 4.67505 38.0908 4.81996 39.7913 5.1C40.3213 8.19833 41.1604 16.02 36.9867 20.115V20.115Z" fill="#13FF00"/>
</svg>
