<svg width="28" height="28" viewBox="0 0 28 28" fill="none" xmlns="http://www.w3.org/2000/svg">
<path d="M1.25 4.08333C1.25 2.51853 2.51853 1.25 4.08333 1.25H8.72892C9.3387 1.25 9.88006 1.64019 10.0729 2.21867L12.1947 8.58438C12.4177 9.2532 12.115 9.98419 11.4844 10.2995L8.2866 11.8984C9.8481 15.3617 12.6383 18.152 16.1016 19.7134L17.7005 16.5156C18.0158 15.885 18.7468 15.5823 19.4156 15.8053L25.7813 17.9271C26.3598 18.12 26.75 18.6613 26.75 19.2711V23.9167C26.75 25.4815 25.4815 26.75 23.9167 26.75H22.5C10.764 26.75 1.25 17.2361 1.25 5.5V4.08333Z" stroke="white" stroke-width="2" stroke-linecap="round" stroke-linejoin="round"/>
</svg>
